<?xml version="1.0" encoding="UTF-8" standalone="no"?>
<svg
   width="128"
   height="128"
   version="1.1"
   id="svg6"
   sodipodi:docname="icon.svg"
   inkscape:version="1.4.2 (f4327f4, 2025-05-13)"
   xmlns:inkscape="http://www.inkscape.org/namespaces/inkscape"
   xmlns:sodipodi="http://sodipodi.sourceforge.net/DTD/sodipodi-0.dtd"
   xmlns="http://www.w3.org/2000/svg"
   xmlns:svg="http://www.w3.org/2000/svg">
  <defs
     id="defs6" />
  <sodipodi:namedview
     id="namedview6"
     pagecolor="#ffffff"
     bordercolor="#000000"
     borderopacity="0.25"
     inkscape:showpageshadow="2"
     inkscape:pageopacity="0.0"
     inkscape:pagecheckerboard="0"
     inkscape:deskcolor="#d1d1d1"
     inkscape:zoom="4.5703125"
     inkscape:cx="47.152137"
     inkscape:cy="79.97265"
     inkscape:window-width="1440"
     inkscape:window-height="829"
     inkscape:window-x="-8"
     inkscape:window-y="-8"
     inkscape:window-maximized="1"
     inkscape:current-layer="svg6" />
  <rect
     width="124"
     height="124"
     x="2"
     y="2"
     fill="#363d52"
     stroke="#212532"
     stroke-width="4"
     rx="14"
     id="rect1" />
  <text
     xml:space="preserve"
     style="font-size:33.5153px;text-align:start;writing-mode:lr-tb;direction:ltr;text-anchor:start;fill:#000000;stroke-width:2.79294"
     x="8.4799595"
     y="27.612127"
     id="text6"
     transform="scale(0.57181575,1.7488151)"><tspan
       sodipodi:role="line"
       id="tspan6"
       x="8.4799595"
       y="27.612127"
       style="stroke-width:2.79294">GAY TEST </tspan><tspan
       sodipodi:role="line"
       x="8.4799595"
       y="69.50631"
       id="tspan7"
       style="stroke-width:2.79294">MEGA GAME</tspan></text>
  <path
     style="fill:#ffffff;stroke-width:0.218803"
     d="m 13.525808,123.62328 c -1.61388,-0.35082 -3.16869,-1.01143 -4.1599156,-1.76747 L 8.642735,121.30423 8.663917,104.3034 8.6850991,87.302564 10.070396,96.164103 c 0.761913,4.873847 1.552859,9.969227 1.757659,11.323077 l 0.372362,2.46154 h 0.613252 c 0.398102,0 0.650162,-0.13434 0.718459,-0.38291 0.05786,-0.2106 0.876807,-5.40444 1.819873,-11.541878 l 1.714666,-11.158975 0.05601,17.449573 0.05601,17.44957 h 0.983305 0.983306 V 100.31093 78.857752 l -1.353589,0.06514 -1.353589,0.06514 -1.696725,11.237208 c -0.933198,6.180465 -1.730541,11.27103 -1.771872,11.31236 -0.04133,0.0413 -0.841166,-4.867722 -1.777409,-10.909007 C 10.255872,84.587312 9.4403098,79.472137 9.3797551,79.261538 9.2908284,78.952266 9.0200313,78.878632 7.9715801,78.878632 H 6.6735043 l -0.0056,20.294018 -0.0056,20.29402 -0.7675635,-1.20342 C 5.47258,117.60137 4.9089463,116.41983 4.6422207,115.63761 L 4.157265,114.21538 4.0997627,64.710547 C 4.0363736,10.137657 3.9543201,13.563148 5.3956283,10.611966 6.3287823,8.7012661 8.7015903,6.3285526 10.611966,5.3958362 13.528023,3.9721088 10.208021,4.0554617 64,4.0554617 c 53.79198,0 50.47198,-0.083353 53.38803,1.3403745 1.91038,0.9327164 4.28319,3.3054299 5.21634,5.2161298 1.44131,2.951182 1.35926,-0.474309 1.29587,54.098581 -0.0545,46.895333 -0.0781,49.565393 -0.44889,50.653553 l -0.39138,1.14872 h -3.60178 -3.60178 v -7.87692 -7.87693 h 3.61026 3.61025 v -2.625637 -2.625641 h -3.61025 -3.61026 v -5.688889 -5.688888 h 3.61026 3.61025 v -2.625641 -2.625642 h -4.70535 -4.70535 l 0.0558,21.388038 0.0558,21.38803 2.51624,0.1094 2.51624,0.1094 -1.42223,0.71252 c -2.884,1.44486 0.49562,1.3599 -53.497432,1.34492 -40.181903,-0.0111 -49.255692,-0.0666 -50.36479,-0.30766 z m 29.813368,-1.74764 c 0.511368,-0.29968 1.479578,-1.16122 2.151573,-1.91453 l 1.221814,-1.36966 9.84e-4,-9.24444 9.83e-4,-9.24445 h -2.844445 -2.844444 v 2.51624 2.51624 h 1.859829 1.859829 v 5.23536 5.23535 l -0.814622,0.67148 c -2.905272,2.39477 -5.272898,0.71111 -6.611036,-4.70122 -1.347,-5.44818 -1.450245,-15.750311 -0.218644,-21.816898 1.007962,-4.964987 2.652878,-7.173512 4.852097,-6.514612 1.212749,0.36335 2.586633,1.830654 3.562034,3.804243 0.455588,0.921824 0.911833,1.676043 1.013874,1.676043 0.102039,0 0.185528,-1.561145 0.185528,-3.469211 v -3.469209 l -1.306698,-1.426032 c -1.975542,-2.155955 -3.554178,-2.743663 -5.297883,-1.97234 -1.798392,0.795515 -3.143752,2.747996 -4.182631,6.070126 -2.219413,7.09725 -2.453874,21.89523 -0.476311,30.06234 1.542113,6.36876 4.640928,9.25819 7.888169,7.35518 z m 35.129316,-0.29417 c 0.526432,-0.38399 1.424841,-1.26128 1.996465,-1.94954 l 1.039317,-1.25138 v -9.13899 -9.139 h -2.953847 -2.953846 v 2.51624 2.51624 h 1.859829 1.859829 v 5.21035 5.21034 l -0.601709,0.56297 c -3.273573,3.06279 -5.880661,0.5305 -7.218172,-7.01107 -0.560432,-3.16001 -0.5467,-14.983985 0.02101,-18.085408 1.062834,-5.806358 2.841839,-8.491876 5.164422,-7.796012 1.104662,0.330965 2.624341,1.991687 3.605635,3.940276 0.431612,0.857066 0.881973,1.5583 1.0008,1.5583 0.132788,0 0.216054,-1.290152 0.216054,-3.347607 v -3.347604 l -1.043362,-1.295107 c -2.808651,-3.486332 -5.923801,-3.517634 -8.144463,-0.08184 -2.117709,3.276506 -3.224994,8.912745 -3.434225,17.480701 -0.321398,13.161141 1.683697,21.921011 5.45669,23.839231 1.336316,0.6794 2.859779,0.53512 4.129578,-0.39109 z m -46.413791,-2.44301 v -2.62564 h -3.610257 -3.610256 v -7.87692 -7.87693 h 3.610256 3.610257 v -2.625637 -2.625641 h -3.610257 -3.610256 v -5.688889 -5.688888 h 3.610256 3.610257 v -2.625641 -2.625642 h -4.594872 -4.594872 v 21.442738 21.44273 h 4.594872 4.594872 z m 18.160684,2.43237 c 0,-0.1063 0.295384,-2.71085 0.65641,-5.7879 0.361026,-3.07704 0.65641,-5.69776 0.65641,-5.82382 0,-0.14841 1.041189,-0.2292 2.953846,-0.2292 1.912657,0 2.953846,0.0808 2.953846,0.2292 0,0.12606 0.295385,2.74678 0.656411,5.82382 0.361025,3.07705 0.65641,5.6816 0.65641,5.7879 0,0.1063 0.501548,0.19327 1.11455,0.19327 h 1.114549 l -0.134872,-1.03931 c -0.267667,-2.06264 -4.938671,-41.470912 -4.938671,-41.66652 0,-0.110286 -0.613492,-0.171205 -1.363314,-0.135378 l -1.363316,0.06514 -2.528026,21.289288 c -1.390417,11.70911 -2.483592,21.33372 -2.429279,21.38803 0.185187,0.18519 1.995046,0.0994 1.995046,-0.0945 z m 35.374139,-5.82382 c 0.381591,-3.24923 0.701591,-5.93517 0.711111,-5.96875 0.0095,-0.0336 1.321929,-0.0336 2.916459,0 l 2.899145,0.0611 0.691935,5.90769 c 0.380563,3.24923 0.700563,5.9377 0.711112,5.97438 0.01055,0.0367 0.486868,0.0367 1.058492,0 l 1.039316,-0.0667 -0.0706,-0.76581 c -0.03883,-0.4212 -1.173187,-10.0212 -2.520793,-21.333334 l -2.450193,-20.567522 -1.362966,-0.06514 c -0.780144,-0.03729 -1.362968,0.02569 -1.362968,0.147263 0,0.116824 -1.132308,9.718443 -2.51624,21.336933 -1.383931,11.61848 -2.516239,21.18223 -2.516239,21.25275 0,0.0705 0.467692,0.0982 1.039316,0.0615 l 1.039316,-0.0667 z m 13.910029,-11.51799 0.056,-17.535082 1.713157,11.135081 c 0.94223,6.124301 1.76522,11.356621 1.82885,11.627391 0.0855,0.36372 0.27347,0.49231 0.71975,0.49231 0.51277,0 0.62091,-0.10747 0.71554,-0.71111 0.0613,-0.39111 0.8865,-5.72484 1.83376,-11.852722 l 1.72228,-11.141608 0.056,17.76041 0.056,17.76041 h 0.98333 0.98333 V 100.32137 78.878632 h -1.39359 -1.3936 l -0.11156,0.711112 c -0.0614,0.391111 -0.83226,5.507956 -1.71313,11.370765 -0.88087,5.862811 -1.63164,10.629581 -1.66839,10.592831 -0.0656,-0.0656 -3.56588,-22.14914 -3.56588,-22.49719 0,-0.09763 -0.640005,-0.177518 -1.422228,-0.177518 H 97.476923 V 100.1755 c 0,11.71328 0.06564,21.36251 0.14587,21.44273 0.08023,0.0802 0.522719,0.14587 0.983313,0.14587 H 99.44355 Z M 15.218701,48.493402 c 0.963752,-0.622157 1.880296,-1.519822 2.795879,-2.738294 0.468938,-0.624069 0.474309,-0.734937 0.474309,-9.791453 v -9.160236 h -2.953846 -2.953846 v 2.516239 2.516239 h 1.863651 1.863651 l -0.05852,5.415385 -0.05852,5.415385 -1.064044,0.711111 C 11.99994,45.467895 9.715696,42.811361 8.4954738,35.664957 7.9358407,32.387387 7.9378977,21.506233 8.4987803,18.173442 c 0.7015595,-4.168699 1.7706237,-6.913147 3.0469457,-7.821969 0.847477,-0.603456 2.173934,-0.5684754 3.146335,0.08297 0.839327,0.562297 2.096673,2.32273 2.904315,4.066385 0.29134,0.628987 0.61134,1.143612 0.711111,1.143612 0.09977,0 0.181402,-1.566543 0.181402,-3.481206 V 8.682031 L 17.623028,7.5866348 C 16.762086,6.4974614 15.794443,5.6628541 14.791142,5.1440894 14.065397,4.7688369 12.352155,4.8039857 11.566536,5.2102454 9.0760406,6.4981303 7.2150169,10.95687 6.3021586,17.822918 c -0.5170387,3.888897 -0.5129333,14.775083 0.00702,18.607851 1.1546082,8.51109 3.400083,12.682107 6.8308924,12.688529 0.848095,0.0016 1.332634,-0.144312 2.078633,-0.625896 z m 67.28969,0.275841 c 0.944695,-0.448287 2.314165,-2.475098 2.901292,-4.293897 0.88725,-2.748528 1.017746,-3.867444 1.014779,-8.700987 -0.0024,-3.869983 -0.07314,-4.953729 -0.399023,-6.110873 -0.830888,-2.950332 -2.044007,-4.468728 -4.702249,-5.885556 -2.725759,-1.452815 -3.348592,-2.751369 -3.34817,-6.980647 1.97e-4,-1.992086 0.10307,-2.904782 0.454392,-4.031475 0.744769,-2.38848 2.267987,-3.3518896 3.935888,-2.489384 0.870949,0.450385 2.344855,2.186098 2.918879,3.437352 0.26631,0.5805 0.558623,1.055455 0.649584,1.055455 0.09096,0 0.165382,-1.577976 0.165382,-3.506613 V 7.7560053 L 85.135362,6.7922233 C 83.305741,4.9626003 81.086643,4.3596864 79.53008,5.2693048 77.943237,6.196617 76.579271,9.2006842 76.025497,12.987969 c -0.359352,2.457621 -0.170758,8.365393 0.336255,10.533399 0.741991,3.172763 1.941058,4.845878 4.330087,6.041976 1.682911,0.84257 2.513126,1.536083 3.013859,2.517607 0.621903,1.219026 0.909829,4.070091 0.657419,6.509797 -0.684679,6.617894 -4.785891,7.310822 -7.70684,1.302128 C 76.257133,39.071794 75.855415,38.4 75.76357,38.4 c -0.09184,0 -0.166989,1.638614 -0.166989,3.641368 v 3.641366 l 0.984961,1.152908 c 1.718653,2.011707 4.11485,2.79345 5.926849,1.933601 z M 21.991397,48.082051 c 0.0017,-0.386628 0.974005,-8.999789 1.210329,-10.721367 l 0.127652,-0.929915 h 2.940438 c 2.68327,0 2.94044,0.03437 2.94044,0.392982 0,0.466784 1.03577,9.638087 1.222044,10.820693 0.129092,0.819557 0.130496,0.820513 1.206613,0.820513 h 1.077371 L 32.596309,47.644444 C 32.358026,46.01479 27.678632,6.3679042 27.678632,5.9786642 c 0,-0.3439991 -0.189971,-0.399177 -1.374328,-0.399177 H 24.929977 L 22.465425,26.420513 c -1.355503,11.462564 -2.517187,21.111795 -2.581519,21.442735 -0.115233,0.592789 -0.10049,0.601709 0.994435,0.601709 0.91198,0 1.111699,-0.06871 1.113056,-0.382906 z M 39.05641,38.886962 V 29.30897 l 2.406838,-11.735468 c 1.323761,-6.454508 2.406837,-11.7936412 2.406837,-11.8647415 0,-0.0711 -0.477019,-0.1292733 -1.060045,-0.1292733 h -1.060046 l -0.91197,4.4307688 c -0.501585,2.436923 -1.340338,6.547693 -1.863897,9.135043 -0.523557,2.587351 -1.009758,4.556581 -1.080442,4.376069 -0.07068,-0.180513 -0.877674,-4.118975 -1.793307,-8.752137 -0.915633,-4.633163 -1.714817,-8.5962395 -1.775961,-8.8068378 -0.08649,-0.2978954 -0.350786,-0.382906 -1.190444,-0.382906 -0.593599,0 -1.079272,0.076384 -1.079272,0.1697422 0,0.093358 1.083077,5.5800516 2.406837,12.1926506 l 2.406838,12.022909 v 9.250083 9.250085 h 1.094017 1.094017 z M 57.435897,29.647863 V 10.830769 h 2.51624 2.516239 V 8.2051282 5.5794872 h -6.017094 -6.017094 v 2.625641 2.6256408 h 2.516239 2.51624 v 18.817094 18.817094 h 0.984615 0.984615 z M 73.62735,45.839316 v -2.625641 h -3.719658 -3.719658 v -7.876923 -7.876923 h 3.719658 3.719658 v -2.625641 -2.625641 h -3.719658 -3.719658 v -5.688889 -5.688889 h 3.719658 3.719658 V 8.2051282 5.5794872 H 68.923077 64.218803 V 27.022222 48.464957 h 4.704274 4.704273 z M 94.632479,29.647863 V 10.830769 h 2.406837 2.406838 V 8.2051282 5.5794872 h -6.024039 -6.024037 l 0.06164,2.5709402 0.06165,2.5709406 2.461538,0.06187 2.461538,0.06187 v 18.809928 18.809928 h 1.094018 1.094017 z"
     id="path7" />
  <path
     style="fill:#ffffff;stroke-width:0.218803"
     d="m 52.243637,103.82781 c 0.06415,-0.47829 0.592403,-4.968251 1.173888,-9.977682 l 1.057246,-9.108056 1.009276,8.61016 c 0.555101,4.735589 1.078552,9.225548 1.163223,9.977678 l 0.153947,1.36753 h -2.33711 -2.337111 z"
     id="path8" />
  <path
     style="fill:#ffffff;stroke-width:0.218803"
     d="m 87.952113,95.305948 c 0.605483,-5.165318 1.15495,-9.445031 1.221038,-9.510473 0.06609,-0.06544 0.590948,3.98842 1.166356,9.008582 0.575408,5.020162 1.094126,9.299873 1.152705,9.510473 0.09671,0.34769 -0.111822,0.38291 -2.267235,0.38291 h -2.373743 z"
     id="path9" />
  <path
     style="fill:#ffffff;stroke-width:0.218803"
     d="m 23.958974,31.070122 c 0,-0.508077 2.184089,-18.995521 2.252154,-19.063586 0.03311,-0.03311 0.529587,4.04572 1.103283,9.064068 0.573695,5.018347 1.095085,9.395037 1.158644,9.725977 l 0.115561,0.60171 h -2.314821 c -1.911635,0 -2.314821,-0.05716 -2.314821,-0.328169 z"
     id="path10" />
</svg>
